<svg width="60" height="60" viewBox="0 0 60 60" fill="none" xmlns="http://www.w3.org/2000/svg">
<path d="M36.4163 7.51312C36.4163 7.51312 48.0731 14.1769 51.1238 24.7631C53.8725 34.3256 51.6712 38.8894 51.6712 38.8894C53.077 40.421 54.1847 42.2015 54.9375 44.1394C55.6936 45.3845 56.1379 46.7938 56.2326 48.2474C56.3273 49.7011 56.0695 51.1561 55.4813 52.4887C55.4813 52.4887 55.2937 48.5887 49.4812 47.7806C44.1544 47.0306 42.2175 52.2169 32.0438 51.9656C26.4067 51.8582 20.8816 50.3735 15.9499 47.641C11.0183 44.9085 6.82994 41.0112 3.75 36.2887C8.72062 39 15.2325 43.2094 23.3419 42.5625C31.4513 41.9156 33.1444 39.4237 33.1444 39.4237C24.0291 32.2106 15.9606 23.7654 9.17062 14.3306C15.5456 19.665 31.3369 30.2812 30.9694 30.0112C25.1932 24.3672 19.9085 18.2413 15.1725 11.7C15.1725 11.7 38.865 31.1794 40.7719 31.0556C41.5556 29.4412 45.6075 21.0844 36.4144 7.51125L36.4163 7.51312Z" fill="url(#paint0_linear_6_2)"/>
<defs>
<linearGradient id="paint0_linear_6_2" x1="30.825" y1="25.5131" x2="29.8338" y2="52.5113" gradientUnits="userSpaceOnUse">
<stop stop-color="#F88535"/>
<stop offset="1" stop-color="#FD2221"/>
</linearGradient>
</defs>
</svg>
